<?xml version="1.0" encoding="UTF-8"?>
<svg width="632px" height="218px" viewBox="0 0 632 218" version="1.1" xmlns="http://www.w3.org/2000/svg" xmlns:xlink="http://www.w3.org/1999/xlink">
    <!-- Generator: Sketch 51 (57462) - http://www.bohemiancoding.com/sketch -->
    <title>Group</title>
    <desc>Created with Sketch.</desc>
    <defs></defs>
    <g id="Page-1" stroke="none" stroke-width="1" fill="none" fill-rule="evenodd">
        <g id="Desktop-HD-Copy" transform="translate(-405.000000, -403.000000)">
            <rect x="0" y="0" width="1440" height="1024"></rect>
            <g id="Group" transform="translate(405.000000, 403.000000)">
                <path d="M610.947753,167 C605.102417,167 599.636358,170.255478 597.174773,175.567046 C595.962572,178.189308 594.385967,180.573181 592.452396,182.718668 C587.254062,188.477213 580.60555,191.36021 572.506859,191.36021 C564.400731,191.36021 557.752219,188.477213 552.553886,182.718668 C550.620314,180.573181 549.043709,178.189308 547.831509,175.567046 C545.369923,170.255478 539.903864,167 534.058528,167 C522.308361,167 515.146709,179.84312 521.192839,189.937336 C523.632114,194.00482 526.636587,197.804119 530.221132,201.350131 C541.435848,212.450044 555.528612,218 572.506859,218 C589.470233,218 603.562996,212.450044 614.78515,201.350131 C618.369694,197.804119 621.374167,194.00482 623.806006,189.937336 C629.852136,179.84312 622.69792,167 610.947753,167" id="Fill-9" fill="#3EE4A9"></path>
                <g id="Group-15" fill="#FFFFFF">
                    <path d="M594.542105,120.856073 C588.723727,126.613312 581.275905,129.495656 572.191199,129.495656 C563.113933,129.495656 555.666111,126.613312 549.847733,120.856073 C544.021914,115.098833 541.112725,107.643469 541.112725,98.4825312 C541.112725,89.3290417 544.021914,81.8364375 549.847733,76.0121667 C555.666111,70.1804479 563.113933,67.2683125 572.191199,67.2683125 C581.275905,67.2683125 588.723727,70.1804479 594.542105,76.0121667 C600.367924,81.8364375 603.277113,89.3290417 603.277113,98.4825312 C603.277113,107.643469 600.367924,115.098833 594.542105,120.856073 M615.747192,40.6866979 C615.643027,40.6866979 615.546302,40.6866979 615.442137,40.6866979 L574.155459,40.6866979 C573.500706,40.6643542 572.853393,40.6345625 572.191199,40.6345625 C555.212248,40.6345625 541.112725,46.2205 529.89263,57.3849271 C518.657653,68.5568021 513.047606,82.2535208 513.047606,98.4825313 C513.047606,114.71899 518.657653,128.385917 529.89263,139.475865 C541.112725,150.580708 555.212248,156.129406 572.191199,156.129406 C589.170149,156.129406 603.269672,150.580708 614.497208,139.475865 C625.084871,129.011542 630.672598,116.260708 631.275269,101.230813 C631.30503,100.836073 631.342232,100.441333 631.342232,100.039146 L631.342232,56.2900833 C631.342232,47.6728438 624.355714,40.6866979 615.747192,40.6866979" id="Fill-13"></path>
                    <path d="M255.503698,0 C246.938201,0 240,6.92234227 240,15.4682616 L240,153 L271,153 L271,15.4682616 C271,6.92234227 264.061799,0 255.503698,0" id="Fill-1"></path>
                    <path d="M359.296641,119.183208 C353.492389,124.865932 346.055227,127.710969 337,127.710969 C327.944773,127.710969 320.507611,124.865932 314.703359,119.183208 C308.899107,113.507835 305.996981,106.141613 305.996981,97.0992455 C305.996981,88.0642291 308.899107,80.6686013 314.703359,74.9197137 C320.507611,69.1634746 327.944773,66.2890308 337,66.2890308 C346.055227,66.2890308 353.492389,69.1634746 359.296641,74.9197137 C365.100893,80.6686013 368.003019,88.0642291 368.003019,97.0992455 C368.003019,106.141613 365.100893,113.507835 359.296641,119.183208 M379.203296,56.5335655 C368.003019,45.513639 353.937728,40 337,40 C320.062272,40 305.996981,45.513639 294.796704,56.5335655 C283.596427,67.5608435 278,81.0802863 278,97.0992455 C278,113.125556 283.596427,126.615593 294.796704,137.569356 C305.996981,148.523119 320.062272,154 337,154 C353.937728,154 368.003019,148.523119 379.203296,137.569356 C390.403573,126.615593 396,113.125556 396,97.0992455 C396,81.0802863 390.403573,67.5608435 379.203296,56.5335655" id="Fill-3"></path>
                    <path d="M81.2966411,119.962054 C75.492389,125.680874 68.0552271,128.543984 59,128.543984 C49.9447729,128.543984 42.507611,125.680874 36.7033589,119.962054 C30.8991068,114.250632 27.9969808,106.837621 27.9969808,97.7378168 C27.9969808,88.6454107 30.8991068,81.2028065 36.7033589,75.4174025 C42.507611,69.6246003 49.9447729,66.7318982 59,66.7318982 C68.0552271,66.7318982 75.492389,69.6246003 81.2966411,75.4174025 C87.1008932,81.2028065 90.0030192,88.6454107 90.0030192,97.7378168 C90.0030192,106.837621 87.1008932,114.250632 81.2966411,119.962054 M101.203296,56.9144671 C90.0030192,45.824543 75.937728,40.2758818 59,40.2758818 C48.6236005,40.2758818 39.3308592,42.3695766 31.1069317,46.5347716 L31.1069317,15.4992602 C31.1069317,6.93952556 24.1447981,0 15.557177,0 C6.9621336,0 0,6.93952556 0,15.4992602 L0,91.1386091 C0,91.8636342 0.0668008555,92.5738628 0.16329098,93.2766932 C0.0668008555,94.7415398 0,96.228581 0,97.7378168 C0,113.865925 5.59642722,127.44165 16.796704,138.46499 C27.9969808,149.48833 42.062272,155 59,155 C75.937728,155 90.0030192,149.48833 101.203296,138.46499 C112.403573,127.44165 118,113.865925 118,97.7378168 C118,81.6171066 112.403573,68.0117894 101.203296,56.9144671" id="Fill-5"></path>
                    <path d="M465.251032,40.4689226 C453.42415,40.4689226 442.777715,45.2451908 433.311726,54.790299 L433.311726,52.5692972 C433.311726,43.9749857 426.303757,37 417.652128,37 C409.007969,37 402,43.9749857 402,52.5692972 L402,64.6325313 L402,99.7228747 L402,153.368612 C402,153.717732 402.283905,154 402.635051,154 L433.311726,154 L433.311726,99.7228747 L433.311726,91.7302393 C433.311726,83.0170783 435.642735,76.4060695 440.304753,71.9120691 C444.966771,67.4180687 450.428205,65.1673545 456.689056,65.1673545 C469.352711,65.1673545 475.688274,73.7468097 475.688274,90.9057203 L475.688274,154 L507,154 L507,86.1294521 C507,72.2909022 503.002917,61.2230335 494.99381,52.9184179 C486.992173,44.6212304 477.077914,40.4689226 465.251032,40.4689226" id="Fill-7"></path>
                    <path d="M153.525981,86.0101883 C154.35737,79.710343 157.326617,74.7116327 162.448568,71.0140573 C167.563097,67.3164818 173.18982,65.4713696 179.351007,65.4713696 C185.497349,65.4713696 190.723224,67.2503224 195.006363,70.808228 C199.296925,74.3734847 201.783669,79.4310034 202.474019,86.0101883 L153.525981,86.0101883 Z M217.92895,53.7611555 C207.209968,44.5870518 194.182397,40 178.831389,40 C163.480382,40 150.170732,45.1310291 138.902439,55.4004385 C127.634146,65.6771989 122,79.5045138 122,96.8897343 C122,114.289657 127.530223,128.146376 138.590668,138.489296 C149.658537,148.824865 163.651113,154 180.590668,154 C189.550371,154 197.886532,152.331313 205.621421,149.038045 C210.557794,147.281145 214.091198,142.613232 214.091198,137.122002 C214.091198,130.116456 208.360551,124.44145 201.293743,124.44145 C199.47508,124.44145 197.752916,124.823704 196.194062,125.492649 C196.186638,125.485298 196.186638,125.485298 196.186638,125.477947 C191.487805,127.506835 186.26193,128.52863 180.486744,128.52863 C173.716861,128.52863 167.629905,126.610008 162.233298,122.772762 C156.844115,118.942868 153.66702,114.017668 152.694592,107.989812 L234,107.989812 L234,91.5528759 C234,75.5349497 228.640509,62.9352592 217.92895,53.7611555 Z" id="Fill-11"></path>
                </g>
            </g>
        </g>
    </g>
</svg>