<?xml version="1.0" standalone="no"?>
<!DOCTYPE svg PUBLIC "-//W3C//DTD SVG 20010904//EN"
 "http://www.w3.org/TR/2001/REC-SVG-20010904/DTD/svg10.dtd">
<svg version="1.0" xmlns="http://www.w3.org/2000/svg"
 width="260.000000pt" height="260.000000pt" viewBox="0 0 260.000000 260.000000"
 preserveAspectRatio="xMidYMid meet">
<metadata>
Created by potrace 1.11, written by Peter Selinger 2001-2013
</metadata>
<g transform="translate(0.000000,260.000000) scale(0.100000,-0.100000)"
fill="#000000" stroke="none">
<path d="M1210 2577 c-3 -3 -30 -7 -60 -10 -190 -21 -396 -144 -529 -316 -155
-200 -205 -478 -135 -748 54 -209 220 -407 429 -510 119 -60 228 -83 381 -84
88 0 119 3 199 16 42 6 107 27 153 47 26 12 50 22 53 22 23 3 156 102 209 156
136 136 217 300 236 480 12 110 10 729 -2 776 -15 60 -57 116 -107 145 l-42
24 -390 3 c-215 2 -393 1 -395 -1z m189 -392 c111 -16 248 -116 298 -217 48
-98 65 -233 42 -340 -34 -156 -164 -286 -324 -325 -11 -2 -51 -6 -88 -8 -271
-13 -471 177 -468 445 2 144 38 237 126 326 105 105 239 144 414 119z"/>
<path d="M696 750 c-109 -34 -175 -163 -141 -276 15 -51 78 -143 143 -210 174
-180 401 -266 662 -251 286 17 513 144 665 372 56 85 68 146 43 227 -13 44
-75 114 -116 129 -46 18 -109 21 -149 9 -60 -19 -99 -55 -142 -128 -83 -142
-190 -213 -328 -217 -130 -4 -225 34 -303 122 -23 27 -53 68 -65 93 -28 54
-65 94 -105 115 -37 19 -125 27 -164 15z"/>
</g>
</svg>
